<svg xmlns="http://www.w3.org/2000/svg" viewBox="0 0 64 64" fill="none">
  <!-- Wrench -->
  <path d="M18 40l8-8a8 8 0 0 1 11.3-11.3l-4.6 4.6 2 2 4.6-4.6A8 8 0 0 1 28 34l-8 8a2.8 2.8 0 0 1-4 0l0 0a2.8 2.8 0 0 1 0-4z" stroke="#fff" stroke-width="2.2" stroke-linejoin="round" fill="none"/>
  <!-- Bug body -->
  <ellipse cx="44" cy="44" rx="7" ry="9" stroke="#fff" stroke-width="2.2" fill="none"/>
  <!-- Bug head -->
  <circle cx="44" cy="33" r="3" stroke="#fff" stroke-width="2" fill="none"/>
  <!-- Bug antennae -->
  <line x1="42" y1="30" x2="39" y2="26" stroke="#fff" stroke-width="2" stroke-linecap="round"/>
  <line x1="46" y1="30" x2="49" y2="26" stroke="#fff" stroke-width="2" stroke-linecap="round"/>
  <!-- Bug legs -->
  <line x1="37" y1="41" x2="33" y2="39" stroke="#fff" stroke-width="2" stroke-linecap="round"/>
  <line x1="37" y1="47" x2="33" y2="49" stroke="#fff" stroke-width="2" stroke-linecap="round"/>
  <line x1="51" y1="41" x2="55" y2="39" stroke="#fff" stroke-width="2" stroke-linecap="round"/>
  <line x1="51" y1="47" x2="55" y2="49" stroke="#fff" stroke-width="2" stroke-linecap="round"/>
  <!-- Bug middle line -->
  <line x1="37" y1="44" x2="51" y2="44" stroke="#fff" stroke-width="1.5" stroke-linecap="round" opacity="0.5"/>
</svg>
